<svg width="32" height="32" viewBox="0 0 32 32" fill="none" xmlns="http://www.w3.org/2000/svg">
<g clip-path="url(#clip0_109_7270)">
<path fill-rule="evenodd" clip-rule="evenodd" d="M0.000854492 16.4059C0.000854492 23.6531 4.58491 29.8026 10.9429 31.9719C11.7434 32.123 12.0351 31.6164 12.0351 31.1813C12.0351 30.7915 12.0214 29.7603 12.0135 28.3916C7.56303 29.3826 6.62402 26.1921 6.62402 26.1921C5.89619 24.2967 4.84717 23.7921 4.84717 23.7921C3.39445 22.7739 4.95718 22.7951 4.95718 22.7951C6.56312 22.9109 7.40783 24.486 7.40783 24.486C8.83599 26.9927 11.1531 26.2686 12.0646 25.8486C12.2099 24.7881 12.6235 24.066 13.0802 23.6551C9.52748 23.2412 5.79207 21.8343 5.79207 15.5478C5.79207 13.7562 6.41578 12.2918 7.43927 11.1447C7.27523 10.7298 6.72617 9.06203 7.59642 6.80407C7.59642 6.80407 8.94011 6.36195 11.9958 8.48495C13.2727 8.12138 14.641 7.93909 16.0013 7.93305C17.3607 7.93909 18.729 8.12138 20.0079 8.48495C23.0616 6.36195 24.4033 6.80407 24.4033 6.80407C25.2755 9.06203 24.7265 10.7298 24.5624 11.1447C25.5879 12.2918 26.2067 13.7562 26.2067 15.5478C26.2067 21.8494 22.4664 23.2362 18.9019 23.643C19.4765 24.1496 19.9872 25.1507 19.9872 26.6805C19.9872 28.874 19.9686 30.6435 19.9686 31.1813C19.9686 31.6204 20.2564 32.13 21.0687 31.9699C27.4207 29.7965 32.0009 23.6521 32.0009 16.4059C32.0009 7.34489 24.8365 0 15.9994 0C7.16522 0 0.000854492 7.34489 0.000854492 16.4059Z" fill="white"/>
</g>
<defs>
<clipPath id="clip0_109_7270">
<rect width="32" height="32" fill="white" transform="translate(0.000854492)"/>
</clipPath>
</defs>
</svg>
