<svg width="972" height="290" viewBox="0 0 972 290" fill="none" xmlns="http://www.w3.org/2000/svg">
<path d="M181 258.862L137.475 284L7 208.584L50.4754 183.495L181 258.862Z" fill="#6D83F4"/>
<path d="M137.476 6L181 31.0894V81.3665L137.476 56.2279V6Z" fill="#E26D90"/>
<path d="M7 131.594L50.4754 156.733L181 81.3664L137.475 56.2279L7 131.594Z" fill="#6D83F4"/>
<path d="M50.4756 133.218L181 208.584V258.861L50.4756 183.495V133.218Z" fill="#E26D90"/>
<path d="M137.475 6V56.2279L7 131.594V81.3665L137.475 6Z" fill="#42C7E8"/>
<path d="M7 158.356V208.584L50.4754 183.495V133.218L7 158.356Z" fill="#42C7E8"/>
<path d="M242.2 69C243.185 69 243.727 69.5421 243.727 70.5276V102.558H262.892C272.795 102.558 275.751 101.573 280.234 95.7086L299.744 69.9856C300.286 69.2464 300.828 69 302.158 69H310.238C311.667 69 311.765 70.1827 311.224 70.8726L289.841 98.4681C286.688 102.607 284.274 105.121 281.121 106.648C284.915 108.373 287.969 110.985 291.024 114.828L314.13 143.262C314.574 143.804 314.672 145.331 313.145 145.331H304.868C303.538 145.331 303.144 144.986 302.602 144.346L281.121 117.637C276.983 112.512 273.288 110.64 263.68 110.64H243.727V143.804C243.727 144.789 243.185 145.331 242.2 145.331H234.81C233.824 145.331 233.282 144.789 233.282 143.804V70.5276C233.282 69.5421 233.824 69 234.81 69H242.2Z" fill="white"/>
<path d="M410.695 69C426.953 69 433.358 76.6381 433.358 91.1257V96.7927C433.358 109.753 428.234 117.194 415.474 118.573L436.314 143.311C436.856 143.952 436.659 145.282 435.329 145.282H426.707C425.524 145.282 424.982 144.937 424.539 144.297L404.487 119.46H360.54V143.754C360.54 144.74 359.999 145.282 359.013 145.282H351.623C350.638 145.282 350.096 144.74 350.096 143.754V72.2523C350.096 70.0841 351.18 69 353.347 69H410.695ZM360.54 110.985H408.823C419.07 110.985 422.864 106.303 422.864 97.0391V92.4562C422.864 83.192 419.07 78.5106 408.823 78.5106H361.723C360.836 78.5106 360.54 78.8556 360.54 79.6933V110.985Z" fill="white"/>
<path d="M471.934 69C472.673 69 473.265 69.1971 473.659 69.887L508.737 113.498L543.717 69.887C544.161 69.2464 544.703 69 545.442 69H554.359C555.246 69 555.541 69.7392 555 70.5276L513.713 121.087V143.754C513.713 144.74 513.171 145.282 512.186 145.282H504.796C503.81 145.282 503.269 144.74 503.269 143.754V121.087L462.13 70.5276C461.588 69.7884 461.933 69 462.771 69H471.934Z" fill="white"/>
<path d="M651.564 69C667.822 69 674.227 76.6381 674.227 91.1257V97.7782C674.227 112.266 667.773 119.904 651.564 119.904H601.41V143.754C601.41 144.74 600.868 145.282 599.882 145.282H592.492C591.507 145.282 590.965 144.74 590.965 143.754V72.2523C590.965 70.0841 592.049 69 594.216 69H651.564ZM601.41 110.738H649.692C659.939 110.738 663.733 106.057 663.733 96.7927V92.4562C663.733 83.192 659.939 78.5106 649.692 78.5106H602.592C601.705 78.5106 601.41 78.9541 601.41 79.6933V110.738Z" fill="white"/>
<path d="M794.341 69C795.425 69 795.869 69.5421 795.869 70.5276V77.2787C795.869 78.2642 795.425 78.8063 794.341 78.8063H757.046V143.754C757.046 144.74 756.504 145.282 755.42 145.282H748.128C747.045 145.282 746.601 144.74 746.601 143.754V78.8063H709.306C708.222 78.8063 707.778 78.2642 707.778 77.2787V70.5276C707.778 69.5421 708.222 69 709.306 69H794.341Z" fill="white"/>
<path d="M841.835 69C842.821 69 843.363 69.5421 843.363 70.5276V143.804C843.363 144.789 842.821 145.331 841.835 145.331H834.445C833.46 145.331 832.918 144.789 832.918 143.804V70.5276C832.918 69.5421 833.46 69 834.445 69H841.835Z" fill="white"/>
<path d="M962.837 69C963.921 69 964.462 69.5421 964.462 70.5276V77.2787C964.462 78.2642 963.921 78.8063 962.837 78.8063H914.357C899.626 78.8063 894.65 83.8326 894.65 98.6652V115.666C894.65 130.499 899.676 135.525 914.357 135.525H962.837C963.921 135.525 964.462 136.067 964.462 137.053V143.804C964.462 144.789 963.921 145.331 962.837 145.331H914.012C892.433 145.331 884.156 137.496 884.156 116.553V97.7782C884.156 76.8352 892.433 69 914.012 69H962.837Z" fill="white"/>
<path d="M240.708 193.364C241.021 193.364 241.241 193.568 241.366 193.975L248.98 219.261C249.011 219.48 249.137 219.59 249.356 219.59H249.591C249.779 219.59 249.904 219.48 249.967 219.261L257.581 196.09C257.926 195.025 258.38 194.304 258.944 193.928C259.508 193.552 260.213 193.364 261.059 193.364H265.712C266.746 193.364 267.529 193.568 268.062 193.975C268.626 194.382 269.08 195.087 269.425 196.09L277.227 219.261C277.29 219.48 277.415 219.59 277.603 219.59H277.885C278.073 219.59 278.198 219.48 278.261 219.261L285.687 193.975C285.75 193.724 285.844 193.568 285.969 193.505C286.126 193.411 286.282 193.364 286.439 193.364H292.784C293.035 193.364 293.176 193.474 293.207 193.693C293.27 193.912 293.254 194.163 293.16 194.445L284.136 222.692C283.697 224.102 283.212 225.058 282.679 225.559C282.146 226.029 281.426 226.264 280.517 226.264H275.018C274.109 226.264 273.389 226.013 272.856 225.512C272.355 225.011 271.869 224.071 271.399 222.692L264.02 200.367C263.989 200.148 263.863 200.038 263.644 200.038H263.456C263.237 200.038 263.111 200.148 263.08 200.367L255.607 222.692C255.137 224.071 254.636 225.011 254.103 225.512C253.602 226.013 252.897 226.264 251.988 226.264H246.63C246.097 226.264 245.627 226.217 245.22 226.123C244.844 226.029 244.499 225.857 244.186 225.606C243.873 225.324 243.591 224.948 243.34 224.478C243.121 224.008 242.901 223.413 242.682 222.692L234.034 194.445C233.94 194.132 233.909 193.881 233.94 193.693C234.003 193.474 234.159 193.364 234.41 193.364H240.708ZM408.187 193.364C409.378 193.364 410.38 193.615 411.195 194.116C412.01 194.586 412.809 195.526 413.592 196.936L429.149 225.183C429.306 225.496 429.337 225.763 429.243 225.982C429.18 226.17 428.961 226.264 428.585 226.264H422.616C422.083 226.264 421.723 226.06 421.535 225.653L418.198 219.59H396.108L392.865 225.653C392.646 226.06 392.285 226.264 391.784 226.264H385.674C385.267 226.264 385.016 226.17 384.922 225.982C384.859 225.763 384.906 225.496 385.063 225.183L400.479 196.936C401.262 195.526 402.03 194.586 402.782 194.116C403.534 193.615 404.411 193.364 405.414 193.364H408.187ZM399.069 214.138H415.237L407.764 200.367C407.639 200.148 407.466 200.038 407.247 200.038H406.965C406.746 200.038 406.573 200.148 406.448 200.367L399.069 214.138ZM532.482 193.364C533.171 193.364 533.516 193.709 533.516 194.398V213.151C533.516 214.404 533.61 215.454 533.798 216.3C534.017 217.115 534.362 217.773 534.832 218.274C535.302 218.744 535.928 219.089 536.712 219.308C537.526 219.496 538.545 219.59 539.767 219.59H558.802C559.491 219.59 559.836 219.935 559.836 220.624V225.23C559.836 225.919 559.491 226.264 558.802 226.264H539.485C537.103 226.264 535.082 226.045 533.422 225.606C531.761 225.167 530.398 224.462 529.333 223.491C528.299 222.488 527.531 221.204 527.03 219.637C526.56 218.039 526.325 216.112 526.325 213.856V194.398C526.325 193.709 526.685 193.364 527.406 193.364H532.482ZM664.651 193.364C665.34 193.364 665.685 193.709 665.685 194.398V213.151C665.685 214.404 665.779 215.454 665.967 216.3C666.186 217.115 666.531 217.773 667.001 218.274C667.471 218.744 668.098 219.089 668.881 219.308C669.696 219.496 670.714 219.59 671.936 219.59H690.971C691.66 219.59 692.005 219.935 692.005 220.624V225.23C692.005 225.919 691.66 226.264 690.971 226.264H671.654C669.273 226.264 667.252 226.045 665.591 225.606C663.93 225.167 662.567 224.462 661.502 223.491C660.468 222.488 659.7 221.204 659.199 219.637C658.729 218.039 658.494 216.112 658.494 213.856V194.398C658.494 193.709 658.854 193.364 659.575 193.364H664.651ZM824.864 193.364C825.584 193.364 825.945 193.709 825.945 194.398V198.863C825.945 199.552 825.584 199.897 824.864 199.897H804.325C803.103 199.897 802.084 200.007 801.27 200.226C800.486 200.414 799.844 200.759 799.343 201.26C798.873 201.73 798.544 202.388 798.356 203.234C798.168 204.049 798.074 205.067 798.074 206.289V206.759H824.629C825.318 206.759 825.663 207.104 825.663 207.793V211.506C825.663 212.195 825.318 212.54 824.629 212.54H798.074V213.339C798.074 214.561 798.168 215.595 798.356 216.441C798.544 217.256 798.873 217.914 799.343 218.415C799.844 218.885 800.486 219.23 801.27 219.449C802.084 219.637 803.103 219.731 804.325 219.731H824.864C825.584 219.731 825.945 220.076 825.945 220.765V225.23C825.945 225.919 825.584 226.264 824.864 226.264H804.184C801.802 226.264 799.781 226.045 798.121 225.606C796.46 225.167 795.097 224.462 794.032 223.491C792.998 222.488 792.23 221.204 791.729 219.637C791.259 218.039 791.024 216.112 791.024 213.856V205.772C791.024 203.516 791.259 201.605 791.729 200.038C792.23 198.471 792.998 197.202 794.032 196.231C795.097 195.228 796.46 194.508 798.121 194.069C799.781 193.599 801.802 193.364 804.184 193.364H824.864ZM962.273 193.364C962.994 193.364 963.354 193.709 963.354 194.398V199.004C963.354 199.725 962.994 200.085 962.273 200.085H947.515V225.23C947.515 225.919 947.171 226.264 946.481 226.264H941.358C940.669 226.264 940.324 225.919 940.324 225.23V200.085H925.566C924.846 200.085 924.485 199.725 924.485 199.004V194.398C924.485 193.709 924.846 193.364 925.566 193.364H962.273Z" fill="white"/>
</svg>
